<svg xmlns="http://www.w3.org/2000/svg" viewBox="0 0 1600 900" role="img" aria-label="LEADS">
  <defs>
    <radialGradient id="g" cx="70%" cy="35%" r="65%">
      <stop offset="0%" stop-color="#d8ff3d" stop-opacity="0.35"/>
      <stop offset="55%" stop-color="#0a0b0c" stop-opacity="0.9"/>
      <stop offset="100%" stop-color="#020303"/>
    </radialGradient>
    <linearGradient id="l" x1="0" y1="1" x2="1" y2="0">
      <stop offset="0%" stop-color="#56c8ff" stop-opacity="0.15"/>
      <stop offset="100%" stop-color="#d8ff3d" stop-opacity="0.05"/>
    </linearGradient>
  </defs>
  <rect width="1600" height="900" fill="#020303"/>
  <rect width="1600" height="900" fill="url(#g)"/>
  <rect width="1600" height="900" fill="url(#l)"/>
  <g fill="#d8ff3d" opacity="0.55">
    <circle cx="220" cy="160" r="2"/><circle cx="380" cy="90" r="1.5"/><circle cx="540" cy="210" r="2.2"/>
    <circle cx="710" cy="120" r="1.4"/><circle cx="890" cy="180" r="2"/><circle cx="1080" cy="90" r="1.6"/>
    <circle cx="1260" cy="150" r="2.4"/><circle cx="1420" cy="70" r="1.3"/><circle cx="180" cy="420" r="1.8"/>
    <circle cx="1340" cy="480" r="2"/><circle cx="250" cy="720" r="1.5"/><circle cx="1480" cy="740" r="2"/>
  </g>
  <g fill="none" stroke="#d8ff3d" stroke-width="2" opacity="0.55">
    <rect x="120" y="180" width="520" height="340" rx="28"/>
    <rect x="180" y="240" width="260" height="24" rx="8" fill="#d8ff3d" stroke="none" opacity="0.8"/>
    <rect x="180" y="290" width="400" height="14" rx="7" fill="#56c8ff" stroke="none" opacity="0.35"/>
    <rect x="180" y="330" width="340" height="14" rx="7" fill="#56c8ff" stroke="none" opacity="0.25"/>
    <rect x="180" y="370" width="280" height="14" rx="7" fill="#56c8ff" stroke="none" opacity="0.18"/>
  </g>
  <g fill="none" stroke="#56c8ff" stroke-width="2" opacity="0.4">
    <circle cx="1180" cy="520" r="150"/>
    <circle cx="1180" cy="520" r="90"/>
    <path d="M1180 370 L1180 670 M1030 520 L1330 520"/>
  </g>
  <text x="120" y="800" fill="#d8ff3d" font-family="Arial, sans-serif" font-size="54" font-weight="700" letter-spacing="6">LEADS</text>
</svg>
