<svg xmlns="http://www.w3.org/2000/svg" viewBox="0 0 64 64" role="img" aria-label="getsite">
  <rect width="64" height="64" fill="#020303"/>
  <circle cx="32" cy="32" r="28" fill="#000"/>
  <circle cx="32" cy="32" r="28" fill="none" stroke="rgba(245,242,235,0.14)" stroke-width="0.8"/>
  <path fill="#f5f2eb" d="M21.5 38.2c0-7.4 5.4-13.2 13.2-13.2 3.4 0 6.3 1 8.8 2.9l-4.4 5.3c-1.7-1.5-3.4-2.3-5.7-2.3-4 0-7 2.9-7 7.1s3 7.1 7 7.1c2.3 0 4.3-0.9 6-2.4l4.4 5.3c-2.7 2.4-6 3.8-10.3 3.8-7.6 0-13.2-5.7-13.2-13.1z"/>
  <g fill="#d8ff3d" transform="translate(43.5 17.5)">
    <rect x="-1.8" y="-9" width="3.6" height="18" rx="1.8"/>
    <rect x="-1.8" y="-9" width="3.6" height="18" rx="1.8" transform="rotate(60)"/>
    <rect x="-1.8" y="-9" width="3.6" height="18" rx="1.8" transform="rotate(120)"/>
  </g>
</svg>
